<mxfile host="Electron" modified="2023-11-18T02:14:49.736Z" agent="Mozilla/5.0 (Macintosh; Intel Mac OS X 10_15_7) AppleWebKit/537.36 (KHTML, like Gecko) draw.io/22.1.2 Chrome/114.0.5735.289 Electron/25.9.4 Safari/537.36" etag="uSbOd-d9_e8iWQ9XbUWC" version="22.1.2" type="device">
  <diagram name="Page-1" id="7TH3VZNbCjvqjchR4mpd">
    <mxGraphModel dx="717" dy="593" grid="1" gridSize="10" guides="1" tooltips="1" connect="1" arrows="1" fold="1" page="1" pageScale="1" pageWidth="827" pageHeight="1169" math="0" shadow="0">
      <root>
        <mxCell id="0" />
        <mxCell id="1" parent="0" />
        <mxCell id="jcc-ZXRb_D8Jn2DB4H0J-1" value="Dinning Philosophers" style="shape=umlFrame;whiteSpace=wrap;html=1;pointerEvents=0;width=136;height=20;" parent="1" vertex="1">
          <mxGeometry x="204" y="160" width="466" height="410" as="geometry" />
        </mxCell>
        <mxCell id="jcc-ZXRb_D8Jn2DB4H0J-2" value="Philosopher" style="shape=umlActor;verticalLabelPosition=bottom;verticalAlign=top;html=1;" parent="1" vertex="1">
          <mxGeometry x="120" y="290" width="30" height="60" as="geometry" />
        </mxCell>
        <mxCell id="jcc-ZXRb_D8Jn2DB4H0J-3" value="Eat" style="ellipse;whiteSpace=wrap;html=1;" parent="1" vertex="1">
          <mxGeometry x="250" y="210" width="140" height="70" as="geometry" />
        </mxCell>
        <mxCell id="jcc-ZXRb_D8Jn2DB4H0J-4" value="Stop Eating" style="ellipse;whiteSpace=wrap;html=1;" parent="1" vertex="1">
          <mxGeometry x="250" y="300" width="140" height="70" as="geometry" />
        </mxCell>
        <mxCell id="jcc-ZXRb_D8Jn2DB4H0J-5" value="Stop Thinking" style="ellipse;whiteSpace=wrap;html=1;" parent="1" vertex="1">
          <mxGeometry x="250" y="480" width="140" height="70" as="geometry" />
        </mxCell>
        <mxCell id="4ufLqOpzZhaP5-4RhAhy-1" value="" style="endArrow=none;html=1;rounded=0;entryX=0.071;entryY=0.286;entryDx=0;entryDy=0;entryPerimeter=0;exitX=0.7;exitY=0.317;exitDx=0;exitDy=0;exitPerimeter=0;" edge="1" parent="1" source="jcc-ZXRb_D8Jn2DB4H0J-2" target="jcc-ZXRb_D8Jn2DB4H0J-5">
          <mxGeometry width="50" height="50" relative="1" as="geometry">
            <mxPoint x="230" y="330" as="sourcePoint" />
            <mxPoint x="280" y="280" as="targetPoint" />
          </mxGeometry>
        </mxCell>
        <mxCell id="4ufLqOpzZhaP5-4RhAhy-2" value="Pick Fork" style="ellipse;whiteSpace=wrap;html=1;" vertex="1" parent="1">
          <mxGeometry x="500" y="210" width="140" height="70" as="geometry" />
        </mxCell>
        <mxCell id="4ufLqOpzZhaP5-4RhAhy-3" value="Think" style="ellipse;whiteSpace=wrap;html=1;" vertex="1" parent="1">
          <mxGeometry x="250" y="390" width="140" height="70" as="geometry" />
        </mxCell>
        <mxCell id="4ufLqOpzZhaP5-4RhAhy-5" value="" style="endArrow=none;html=1;rounded=0;exitX=0.667;exitY=0.383;exitDx=0;exitDy=0;exitPerimeter=0;entryX=0.021;entryY=0.414;entryDx=0;entryDy=0;entryPerimeter=0;" edge="1" parent="1" source="jcc-ZXRb_D8Jn2DB4H0J-2" target="jcc-ZXRb_D8Jn2DB4H0J-3">
          <mxGeometry width="50" height="50" relative="1" as="geometry">
            <mxPoint x="350" y="430" as="sourcePoint" />
            <mxPoint x="400" y="380" as="targetPoint" />
          </mxGeometry>
        </mxCell>
        <mxCell id="4ufLqOpzZhaP5-4RhAhy-6" value="" style="endArrow=none;html=1;rounded=0;exitX=0.036;exitY=0.214;exitDx=0;exitDy=0;exitPerimeter=0;entryX=0.6;entryY=0.35;entryDx=0;entryDy=0;entryPerimeter=0;" edge="1" parent="1" source="4ufLqOpzZhaP5-4RhAhy-3" target="jcc-ZXRb_D8Jn2DB4H0J-2">
          <mxGeometry width="50" height="50" relative="1" as="geometry">
            <mxPoint x="350" y="430" as="sourcePoint" />
            <mxPoint x="150" y="320" as="targetPoint" />
          </mxGeometry>
        </mxCell>
        <mxCell id="4ufLqOpzZhaP5-4RhAhy-7" value="" style="endArrow=none;html=1;rounded=0;entryX=0.667;entryY=0.333;entryDx=0;entryDy=0;entryPerimeter=0;exitX=0.071;exitY=0.714;exitDx=0;exitDy=0;exitPerimeter=0;" edge="1" parent="1" source="jcc-ZXRb_D8Jn2DB4H0J-4" target="jcc-ZXRb_D8Jn2DB4H0J-2">
          <mxGeometry width="50" height="50" relative="1" as="geometry">
            <mxPoint x="350" y="430" as="sourcePoint" />
            <mxPoint x="400" y="380" as="targetPoint" />
          </mxGeometry>
        </mxCell>
        <mxCell id="4ufLqOpzZhaP5-4RhAhy-8" value="Drop Fork" style="ellipse;whiteSpace=wrap;html=1;" vertex="1" parent="1">
          <mxGeometry x="500" y="330" width="140" height="70" as="geometry" />
        </mxCell>
        <mxCell id="4ufLqOpzZhaP5-4RhAhy-9" value="&amp;lt;&amp;lt;include&amp;gt;&amp;gt;" style="html=1;verticalAlign=bottom;labelBackgroundColor=none;endArrow=open;endFill=0;dashed=1;rounded=0;entryX=0.043;entryY=0.329;entryDx=0;entryDy=0;entryPerimeter=0;exitX=0.95;exitY=0.729;exitDx=0;exitDy=0;exitPerimeter=0;" edge="1" parent="1" source="jcc-ZXRb_D8Jn2DB4H0J-4" target="4ufLqOpzZhaP5-4RhAhy-8">
          <mxGeometry width="160" relative="1" as="geometry">
            <mxPoint x="290" y="460" as="sourcePoint" />
            <mxPoint x="450" y="460" as="targetPoint" />
          </mxGeometry>
        </mxCell>
        <mxCell id="4ufLqOpzZhaP5-4RhAhy-10" value="&amp;lt;&amp;lt;include&amp;gt;&amp;gt;" style="html=1;verticalAlign=bottom;labelBackgroundColor=none;endArrow=open;endFill=0;dashed=1;rounded=0;entryX=0.029;entryY=0.6;entryDx=0;entryDy=0;entryPerimeter=0;exitX=0.993;exitY=0.6;exitDx=0;exitDy=0;exitPerimeter=0;" edge="1" parent="1" source="jcc-ZXRb_D8Jn2DB4H0J-3" target="4ufLqOpzZhaP5-4RhAhy-2">
          <mxGeometry width="160" relative="1" as="geometry">
            <mxPoint x="290" y="460" as="sourcePoint" />
            <mxPoint x="450" y="460" as="targetPoint" />
          </mxGeometry>
        </mxCell>
        <mxCell id="4ufLqOpzZhaP5-4RhAhy-11" value="Sleep" style="ellipse;whiteSpace=wrap;html=1;" vertex="1" parent="1">
          <mxGeometry x="500" y="440" width="140" height="70" as="geometry" />
        </mxCell>
        <mxCell id="4ufLqOpzZhaP5-4RhAhy-12" value="&amp;lt;&amp;lt;extend&amp;gt;&amp;gt;" style="html=1;verticalAlign=bottom;labelBackgroundColor=none;endArrow=open;endFill=0;dashed=1;rounded=0;exitX=-0.007;exitY=0.371;exitDx=0;exitDy=0;exitPerimeter=0;entryX=0.986;entryY=0.657;entryDx=0;entryDy=0;entryPerimeter=0;" edge="1" parent="1" source="4ufLqOpzZhaP5-4RhAhy-11" target="4ufLqOpzZhaP5-4RhAhy-3">
          <mxGeometry width="160" relative="1" as="geometry">
            <mxPoint x="290" y="460" as="sourcePoint" />
            <mxPoint x="450" y="460" as="targetPoint" />
          </mxGeometry>
        </mxCell>
        <mxCell id="4ufLqOpzZhaP5-4RhAhy-13" value="Philosopher" style="swimlane;fontStyle=1;align=center;verticalAlign=top;childLayout=stackLayout;horizontal=1;startSize=26;horizontalStack=0;resizeParent=1;resizeParentMax=0;resizeLast=0;collapsible=1;marginBottom=0;whiteSpace=wrap;html=1;" vertex="1" parent="1">
          <mxGeometry x="160" y="810" width="160" height="190" as="geometry" />
        </mxCell>
        <mxCell id="4ufLqOpzZhaP5-4RhAhy-14" value="- philId: int&lt;br&gt;- philName: String" style="text;strokeColor=none;fillColor=none;align=left;verticalAlign=top;spacingLeft=4;spacingRight=4;overflow=hidden;rotatable=0;points=[[0,0.5],[1,0.5]];portConstraint=eastwest;whiteSpace=wrap;html=1;" vertex="1" parent="4ufLqOpzZhaP5-4RhAhy-13">
          <mxGeometry y="26" width="160" height="44" as="geometry" />
        </mxCell>
        <mxCell id="4ufLqOpzZhaP5-4RhAhy-15" value="" style="line;strokeWidth=1;fillColor=none;align=left;verticalAlign=middle;spacingTop=-1;spacingLeft=3;spacingRight=3;rotatable=0;labelPosition=right;points=[];portConstraint=eastwest;strokeColor=inherit;" vertex="1" parent="4ufLqOpzZhaP5-4RhAhy-13">
          <mxGeometry y="70" width="160" height="8" as="geometry" />
        </mxCell>
        <mxCell id="4ufLqOpzZhaP5-4RhAhy-16" value="+ Philosopher(): void&lt;br&gt;+ eat(): bool&lt;br&gt;+ stopEating():&amp;nbsp; bool&lt;br&gt;+ think(): bool&lt;br&gt;+ stopThinking(): bool&lt;br&gt;+ pickFork():bool&lt;br&gt;+ dropFork(): bool" style="text;strokeColor=none;fillColor=none;align=left;verticalAlign=top;spacingLeft=4;spacingRight=4;overflow=hidden;rotatable=0;points=[[0,0.5],[1,0.5]];portConstraint=eastwest;whiteSpace=wrap;html=1;" vertex="1" parent="4ufLqOpzZhaP5-4RhAhy-13">
          <mxGeometry y="78" width="160" height="112" as="geometry" />
        </mxCell>
        <mxCell id="4ufLqOpzZhaP5-4RhAhy-17" value="Fork" style="swimlane;fontStyle=1;align=center;verticalAlign=top;childLayout=stackLayout;horizontal=1;startSize=26;horizontalStack=0;resizeParent=1;resizeParentMax=0;resizeLast=0;collapsible=1;marginBottom=0;whiteSpace=wrap;html=1;" vertex="1" parent="1">
          <mxGeometry x="460" y="810" width="160" height="190" as="geometry" />
        </mxCell>
        <mxCell id="4ufLqOpzZhaP5-4RhAhy-18" value="- forkId: int&lt;br&gt;" style="text;strokeColor=none;fillColor=none;align=left;verticalAlign=top;spacingLeft=4;spacingRight=4;overflow=hidden;rotatable=0;points=[[0,0.5],[1,0.5]];portConstraint=eastwest;whiteSpace=wrap;html=1;" vertex="1" parent="4ufLqOpzZhaP5-4RhAhy-17">
          <mxGeometry y="26" width="160" height="44" as="geometry" />
        </mxCell>
        <mxCell id="4ufLqOpzZhaP5-4RhAhy-19" value="" style="line;strokeWidth=1;fillColor=none;align=left;verticalAlign=middle;spacingTop=-1;spacingLeft=3;spacingRight=3;rotatable=0;labelPosition=right;points=[];portConstraint=eastwest;strokeColor=inherit;" vertex="1" parent="4ufLqOpzZhaP5-4RhAhy-17">
          <mxGeometry y="70" width="160" height="8" as="geometry" />
        </mxCell>
        <mxCell id="4ufLqOpzZhaP5-4RhAhy-20" value="+ Fork(): void&lt;br&gt;+ setForkId():&amp;nbsp; void&lt;br&gt;+ getForkId(): int" style="text;strokeColor=none;fillColor=none;align=left;verticalAlign=top;spacingLeft=4;spacingRight=4;overflow=hidden;rotatable=0;points=[[0,0.5],[1,0.5]];portConstraint=eastwest;whiteSpace=wrap;html=1;" vertex="1" parent="4ufLqOpzZhaP5-4RhAhy-17">
          <mxGeometry y="78" width="160" height="112" as="geometry" />
        </mxCell>
        <mxCell id="4ufLqOpzZhaP5-4RhAhy-21" value="" style="endArrow=none;html=1;rounded=0;entryX=0;entryY=0;entryDx=0;entryDy=0;entryPerimeter=0;exitX=1.025;exitY=0.977;exitDx=0;exitDy=0;exitPerimeter=0;" edge="1" parent="1" source="4ufLqOpzZhaP5-4RhAhy-14" target="4ufLqOpzZhaP5-4RhAhy-19">
          <mxGeometry width="50" height="50" relative="1" as="geometry">
            <mxPoint x="350" y="790" as="sourcePoint" />
            <mxPoint x="400" y="740" as="targetPoint" />
          </mxGeometry>
        </mxCell>
        <mxCell id="4ufLqOpzZhaP5-4RhAhy-22" value="0..2" style="text;html=1;strokeColor=none;fillColor=none;align=center;verticalAlign=middle;whiteSpace=wrap;rounded=0;" vertex="1" parent="1">
          <mxGeometry x="420" y="850" width="30" height="30" as="geometry" />
        </mxCell>
        <mxCell id="4ufLqOpzZhaP5-4RhAhy-23" value="0..*" style="text;html=1;strokeColor=none;fillColor=none;align=center;verticalAlign=middle;whiteSpace=wrap;rounded=0;" vertex="1" parent="1">
          <mxGeometry x="320" y="880" width="30" height="30" as="geometry" />
        </mxCell>
      </root>
    </mxGraphModel>
  </diagram>
</mxfile>
